<svg xmlns="http://www.w3.org/2000/svg" viewBox="0 0 600 340" font-family="Segoe UI, Arial, sans-serif">
  <rect width="600" height="340" fill="#ffffff"/>
  <text x="300" y="26" text-anchor="middle" font-size="16" font-weight="700" fill="#1a1d23">Three-Tier Network Design</text>

  <rect x="220" y="45" width="160" height="50" rx="8" fill="#2f6fed" stroke="#255bc4" stroke-width="2"/>
  <text x="300" y="76" text-anchor="middle" font-size="14" font-weight="700" fill="#ffffff">Core Layer</text>

  <rect x="150" y="140" width="130" height="50" rx="8" fill="#a9c6f9" stroke="#2f6fed" stroke-width="2"/>
  <text x="215" y="171" text-anchor="middle" font-size="13" font-weight="700" fill="#1a3a6b">Distribution</text>
  <rect x="320" y="140" width="130" height="50" rx="8" fill="#a9c6f9" stroke="#2f6fed" stroke-width="2"/>
  <text x="385" y="171" text-anchor="middle" font-size="13" font-weight="700" fill="#1a3a6b">Distribution</text>

  <rect x="80" y="235" width="110" height="45" rx="8" fill="#eef0f3" stroke="#d5d8de" stroke-width="2"/>
  <text x="135" y="262" text-anchor="middle" font-size="12" fill="#1a1d23">Access</text>
  <rect x="245" y="235" width="110" height="45" rx="8" fill="#eef0f3" stroke="#d5d8de" stroke-width="2"/>
  <text x="300" y="262" text-anchor="middle" font-size="12" fill="#1a1d23">Access</text>
  <rect x="410" y="235" width="110" height="45" rx="8" fill="#eef0f3" stroke="#d5d8de" stroke-width="2"/>
  <text x="465" y="262" text-anchor="middle" font-size="12" fill="#1a1d23">Access</text>

  <g stroke="#9aa3b2" stroke-width="2">
    <line x1="270" y1="95" x2="215" y2="138"/>
    <line x1="330" y1="95" x2="385" y2="138"/>
    <line x1="200" y1="190" x2="135" y2="233"/>
    <line x1="230" y1="190" x2="300" y2="233"/>
    <line x1="360" y1="190" x2="300" y2="233"/>
    <line x1="390" y1="190" x2="465" y2="233"/>
  </g>

  <text x="135" y="310" text-anchor="middle" font-size="11" fill="#666">end devices</text>
  <text x="300" y="310" text-anchor="middle" font-size="11" fill="#666">end devices</text>
  <text x="465" y="310" text-anchor="middle" font-size="11" fill="#666">end devices</text>
</svg>
